<svg width="31.031" height="36.063" viewBox="0 0 31.031 36.063" xmlns="http://www.w3.org/2000/svg"><g id="svgGroup" stroke-linecap="round" fill-rule="evenodd" font-size="9pt" stroke="#000000" stroke-width="0" fill="#ffffff" style="stroke:#000000;stroke-width:0;fill:#ffffff"><path d="M 21.656 11.75 L 21.656 11.594 Q 21.656 10.15 21.078 9.141 A 3.755 3.755 0 0 0 21.031 9.063 A 3.874 3.874 0 0 0 19.589 7.687 A 4.889 4.889 0 0 0 19.188 7.484 Q 18.131 7.01 16.653 6.947 A 10.893 10.893 0 0 0 16.188 6.938 A 10.169 10.169 0 0 0 14.691 7.042 Q 13.858 7.166 13.15 7.437 A 6.227 6.227 0 0 0 13.031 7.484 A 6.888 6.888 0 0 0 11.813 8.121 A 5.394 5.394 0 0 0 10.844 8.938 Q 10 9.844 9.594 10.969 L 1 9.531 A 12.425 12.425 0 0 1 3.112 5.384 A 11.821 11.821 0 0 1 4 4.375 A 13.251 13.251 0 0 1 7.892 1.665 A 16.041 16.041 0 0 1 9.203 1.125 A 18.644 18.644 0 0 1 13.333 0.165 A 23.912 23.912 0 0 1 16.188 0 Q 19.031 0 21.688 0.672 A 15.714 15.714 0 0 1 25.364 2.093 A 14.207 14.207 0 0 1 26.453 2.75 A 10.253 10.253 0 0 1 29.797 6.406 A 9.681 9.681 0 0 1 30.795 9.234 Q 31.024 10.411 31.031 11.757 A 16.358 16.358 0 0 1 31.031 11.844 L 31.031 35.375 L 22.156 35.375 L 22.156 30.531 L 21.844 30.531 Q 21 32.156 19.594 33.391 Q 18.188 34.625 16.203 35.344 A 11.605 11.605 0 0 1 13.923 35.905 A 15.916 15.916 0 0 1 11.625 36.063 A 16.13 16.13 0 0 1 8.295 35.732 A 13.106 13.106 0 0 1 5.672 34.891 A 9.374 9.374 0 0 1 1.516 31.391 A 9.04 9.04 0 0 1 0.272 28.329 Q 0.017 27.143 0.001 25.777 A 15.67 15.67 0 0 1 0 25.594 Q 0 22.688 1.078 20.719 A 8.557 8.557 0 0 1 4.016 17.563 Q 5.875 16.375 8.235 15.75 A 30.602 30.602 0 0 1 12.703 14.925 A 33.952 33.952 0 0 1 13.188 14.875 A 217.727 217.727 0 0 0 14.63 14.722 Q 16.395 14.528 17.673 14.354 A 65.127 65.127 0 0 0 18.078 14.297 A 12.569 12.569 0 0 0 19.045 14.123 Q 19.99 13.911 20.576 13.587 A 2.945 2.945 0 0 0 20.797 13.453 A 1.858 1.858 0 0 0 21.633 12.105 A 2.626 2.626 0 0 0 21.656 11.75 Z M 21.719 22.875 L 21.719 19.094 Q 21.351 19.377 20.624 19.609 A 7.876 7.876 0 0 1 20.469 19.656 Q 19.625 19.906 18.594 20.094 A 82.898 82.898 0 0 1 16.563 20.438 Q 15.563 20.594 14.781 20.688 A 14.075 14.075 0 0 0 13.165 21.016 A 10.466 10.466 0 0 0 11.75 21.5 A 6.052 6.052 0 0 0 10.715 22.061 A 4.396 4.396 0 0 0 9.719 22.984 Q 9 23.906 9 25.344 A 4.351 4.351 0 0 0 9.131 26.437 A 3.341 3.341 0 0 0 9.688 27.609 A 4.101 4.101 0 0 0 11.193 28.843 A 5.045 5.045 0 0 0 11.547 29 Q 12.719 29.469 14.281 29.469 Q 16.5 29.469 18.172 28.594 A 6.848 6.848 0 0 0 20.119 27.1 A 6.398 6.398 0 0 0 20.781 26.219 Q 21.719 24.719 21.719 22.875 Z" vector-effect="non-scaling-stroke"/></g></svg>